{"accessors" : [{"bufferView" : 0, "byteOffset" : 0, "componentType" : 5123, "count" : 38331, "type" : "SCALAR", "max" : [13080], "min" : [0]}, {"bufferView" : 1, "byteOffset" : 0, "componentType" : 5126, "count" : 13081, "type" : "VEC3", "max" : [50.9286994934082, 10.395999908447266, 54.01449966430664], "min" : [0.10740000009536743, -0.2728999853134155, 33.52619934082031], "name" : "POSITION"}, {"bufferView" : 1, "byteOffset" : 12, "componentType" : 5126, "count" : 13081, "type" : "VEC2", "max" : [1.0198999643325806, 1], "min" : [-0.019899999722838402, 0], "name" : "TEXCOORD_0"}, {"bufferView" : 1, "byteOffset" : 20, "componentType" : 5126, "count" : 13081, "type" : "VEC3", "max" : [1.0000044107437134, 1.0000044107437134, 1.0000044107437134], "min" : [-1.0000044107437134, -1.0000044107437134, -1.0000044107437134], "name" : "NORMAL"}, {"bufferView" : 0, "byteOffset" : 76664, "componentType" : 5123, "count" : 192, "type" : "SCALAR", "max" : [65], "min" : [0]}, {"bufferView" : 2, "byteOffset" : 0, "componentType" : 5126, "count" : 66, "type" : "VEC3", "max" : [303.5946960449219, 227.70579528808594, 227.84739685058594], "min" : [-260.0721130371094, 0, -345.93719482421875], "name" : "POSITION"}, {"bufferView" : 2, "byteOffset" : 12, "componentType" : 5126, "count" : 66, "type" : "VEC2", "max" : [1, 1], "min" : [0, 0], "name" : "TEXCOORD_0"}, {"bufferView" : 2, "byteOffset" : 20, "componentType" : 5126, "count" : 66, "type" : "VEC3", "max" : [0, 1.0000044107437134, 1.0000044107437134], "min" : [0, 0, -0], "name" : "NORMAL"}], "asset" : {"generator" : "Aspose.3D 24.6.0", "version" : "2.0"}, "buffers" : [{"uri" : "buffer.bin", "byteLength" : 497764}], "bufferViews" : [{"buffer" : 0, "byteOffset" : 0, "byteLength" : 77048, "target" : 34963}, {"buffer" : 0, "byteOffset" : 77052, "byteLength" : 418592, "byteStride" : 32, "target" : 34962}, {"buffer" : 0, "byteOffset" : 495648, "byteLength" : 2112, "byteStride" : 32, "target" : 34962}], "meshes" : [{"primitives" : [{"attributes" : {"POSITION" : 1, "TEXCOORD_0" : 2, "NORMAL" : 3}, "indices" : 0, "mode" : 4}], "name" : ""}, {"primitives" : [{"attributes" : {"POSITION" : 5, "TEXCOORD_0" : 6, "NORMAL" : 7}, "indices" : 4, "mode" : 4}], "name" : ""}], "nodes" : [{"mesh" : 0, "name" : "Box012"}, {"mesh" : 1, "name" : "Plane001"}], "scene" : 0, "scenes" : [{"nodes" : [0, 1]}]}